<?xml version="1.0" encoding="utf-8"?>
<!-- Generator: Adobe Illustrator 19.1.1, SVG Export Plug-In . SVG Version: 6.00 Build 0)  -->
<svg version="1.1" id="Слой_1" xmlns="http://www.w3.org/2000/svg" xmlns:xlink="http://www.w3.org/1999/xlink" x="0px" y="0px"
	 viewBox="0 0 265 150" style="enable-background:new 0 0 265 150;" xml:space="preserve">
<style type="text/css">
	.st0{fill-rule:evenodd;clip-rule:evenodd;fill:#504596;}
	.st1{fill-rule:evenodd;clip-rule:evenodd;fill:#FFFFFF;}
</style>
<rect x="-28.7" y="-19.1" class="st0" width="357.1" height="197.1"/>
<path class="st1" d="M217,95.1c-3.6-7.1-8.3-16.4-11.7-22.9c-2.4-4.6-4-8.2-4-8.2s-1.7,3.7-4.1,8.3c-3.4,6.5-8,15.7-11.6,22.7H180
	L201,54.7l0.5,0l21.1,40.4H217z M184.5,59.8c-1.3,0-2.3-1-2.3-2.3s1-2.3,2.3-2.3s2.3,1,2.3,2.3S185.8,59.8,184.5,59.8z M168.1,59.8
	h-15.3v-4.7h20v40h-4.7V59.8z M152.8,95.1h-20v-40h4.7v35.3h15.3V95.1z M105,95.5c-11.3,0-20.4-9.1-20.4-20.4s9.2-20.4,20.4-20.4
	c11.3,0,20.4,9.1,20.4,20.4S116.3,95.5,105,95.5z M105,58.9c-8.7,0-15.8,7.2-15.8,16.2s7.1,16.2,15.8,16.2c8.7,0,15.8-7.2,15.8-16.2
	S113.7,58.9,105,58.9z M62,95.5L40.9,55.1h5.6c3.6,7.1,8.3,16.4,11.7,22.9c2.4,4.6,4,8.2,4,8.2s1.7-3.7,4.1-8.3
	c3.4-6.5,8-15.7,11.6-22.7h5.6L62.5,95.5L62,95.5z"/>
</svg>
