<?xml version="1.0" encoding="utf-8"?>
<!-- Generator: Adobe Illustrator 19.2.0, SVG Export Plug-In . SVG Version: 6.00 Build 0)  -->
<svg version="1.1" id="Layer_1" xmlns="http://www.w3.org/2000/svg" xmlns:xlink="http://www.w3.org/1999/xlink" x="0px" y="0px"
	 viewBox="0 0 611.8 698.2" style="enable-background:new 0 0 611.8 698.2;" xml:space="preserve">
<style type="text/css">
	.st0{fill:#231F20;}
</style>
<path class="st0" d="M612.3,535.1v17.1c-8.7,7-17,14.4-25,22.2c-12.6,12.6-38.9,47-65.5,75.4c-21.3,22.8-51.4,45-55.7,48.4l-19.3,0
	c11.4-14,23.9-28.6,35.6-40.3c1.8-1.8,3.8-3.7,6-5.8c2.5-2.6,5-5.2,7.4-7.6c19.5-19.5,64.6-52.8,87-75.3
	C591.4,560.7,601.5,548.4,612.3,535.1z"/>
<path class="st0" d="M612.3,648.2v23.2c-6.9,10.2-15.3,18.2-22.4,26.8l-34.4,0C568,684.9,587.1,668,612.3,648.2z"/>
<path class="st0" d="M612.3,476.5v19.9c-12.7,16.1-25.5,32.2-37.7,44.4c-2.1,2.1-4.4,4.3-6.7,6.5c-2.3,2.4-4.5,4.7-6.6,6.8
	c-23.8,23.8-60.8,47.5-86.3,73c-19,19-39,47.9-58.7,71.1h-33.8l0.7-0.7c19.5-19.5,64.9-53,87.4-75.4c20-20,47.6-59.3,73.8-85.5
	c1.8-1.8,3.8-3.7,6-5.8c2.5-2.6,5-5.2,7.4-7.6C569.8,511,592,493.4,612.3,476.5z"/>
<path class="st0" d="M612.3,584.9v34.3c-23.6,21.5-56.1,43.1-79.1,66.1c-3.9,3.9-7.3,8.3-11.3,12.9l-14.4,0
	c7.4-6.3,15.8-12.5,21.2-17.9c20-20,47.6-59.3,73.8-85.5c1.8-1.8,3.8-3.7,6-5.8C609.7,587.6,611,586.2,612.3,584.9z"/>
<path class="st0" d="M589.9,0c-2,2.1-3.9,4.2-5.8,6.1c-2.1,2.1-4.4,4.3-6.7,6.5c-2.3,2.4-4.5,4.7-6.6,6.8
	C547,43.2,510,66.9,484.5,92.3c-23.1,23.1-48.3,60.7-71.9,85.1c-10.4,12.2-20.9,23.9-30,33c-23.8,23.8-60.8,47.5-86.3,73
	c-6.7,6.8-13.6,14.7-20.6,23.2c-7,8.8-13.9,17.7-20.8,26.1c-5.6,7-11.1,13.9-16.6,20.5c-5.5,6.5-11,12.7-16.4,18
	c-2.1,2.1-4.4,4.3-6.7,6.5c-2.3,2.4-4.5,4.7-6.6,6.8c-23.8,23.8-60.8,47.5-86.3,73c-6.7,6.8-13.7,14.7-20.7,23.2
	c-7,8.8-13.9,17.7-20.8,26.1c-5.5,7-11.1,13.9-16.6,20.4c-5.5,6.5-11,12.7-16.4,18.1c-2.4,2.4-5,4.9-7.7,7.5
	c-2.6,2.8-5.1,5.4-7.6,7.8c-9.3,9.3-20.5,18.5-32.3,27.8v-29c2.4-2.7,4.8-5.4,7.2-8c11.8-13.7,24.2-27.5,35.4-38.7
	c19.5-19.5,64.5-52.8,87-75.3c20-20,47.6-59.3,73.8-85.5c1.8-1.8,3.8-3.7,6-5.8c2.5-2.7,5-5.2,7.4-7.6c19.5-19.5,64.6-52.8,87-75.3
	c20-20,47.6-59.3,73.8-85.5c2-2,4.3-4.3,6.9-6.6c2.9-3,5.7-5.9,8.4-8.7c19.5-19.5,64.5-52.9,87-75.3c20-20,47.6-59.3,73.8-85.5
	c0.5-0.5,1.1-1,1.6-1.6H589.9z"/>
<path class="st0" d="M612.3,59.6v33.1c-22.3,18.8-49.6,37.8-69.7,57.9c-23.2,23.1-48.4,60.8-71.9,85.2c-10.4,12.2-20.9,23.9-30,33
	l-86.3,73c-6.8,6.7-13.7,14.7-20.6,23.2l0,0c-6.9,8.8-13.9,17.6-20.8,26l0,0c-11.1,14-22.2,27.8-33,38.5c-2.1,2.1-4.4,4.3-6.7,6.5
	c-2.3,2.4-4.5,4.7-6.6,6.8c-23.8,23.8-60.8,47.5-86.3,73c-6.8,6.7-13.7,14.7-20.6,23.2l0,0c-6.9,8.7-13.9,17.6-20.8,26l0,0
	c-11.1,14-22.2,27.8-33,38.5c-2.4,2.4-5,4.9-7.7,7.5c-2.6,2.8-5.1,5.4-7.6,7.8L4.4,691.9c-1.4,1.3-2.9,2.7-4.2,4.2v-9.7
	c17.9-18.1,41.8-51.3,65.4-76.7C77.4,596,89.8,582.2,101,571c19.5-19.5,64.5-52.8,87-75.3c20-20,47.6-59.3,73.8-85.5
	c1.8-1.8,3.8-3.7,6-5.8c2.5-2.6,5-5.2,7.4-7.6c19.5-19.5,64.5-52.8,87-75.3c20-20,47.6-59.3,73.8-85.5c2-2,4.3-4.3,6.9-6.6
	c2.9-3,5.7-5.9,8.4-8.7c19.5-19.5,64.5-52.9,87-75.3c20-20,47.6-59.3,73.8-85.5L612.3,59.6z"/>
<path class="st0" d="M611.8,185.9V198c-4,3.5-7.8,7.1-11.5,10.7c-23.1,23.2-48.3,60.8-71.8,85.2l0,0c-10.5,12.2-20.9,23.9-30,33
	c-23.8,23.8-60.8,47.5-86.3,73c-6.7,6.7-13.7,14.7-20.7,23.2l0,0c-6.9,8.8-13.9,17.7-20.8,26l0,0c-11.1,14-22.2,27.7-33,38.5
	c-2.1,2.1-4.4,4.3-6.7,6.5c-2.3,2.4-4.5,4.7-6.6,6.8c-23.8,23.8-60.8,47.5-86.3,73c-6.7,6.7-13.6,14.7-20.6,23.2l0,0
	c-7,8.8-13.9,17.7-20.8,26.1l0,0c-11.1,14-21.1,25.7-34.6,38.5c-13.4,12.8-36.5,29.9-44.7,36.5H97.6c8.5-10.3,17-21,25.7-30.4
	c11.8-13.7,24.2-27.5,35.4-38.7c19.5-19.5,64.6-52.8,87-75.3c20-20,47.6-59.3,73.8-85.5c1.8-1.8,3.8-3.7,6-5.8
	c2.5-2.6,5-5.2,7.4-7.6c19.5-19.5,64.6-52.8,87-75.3c20-20,47.6-59.3,73.8-85.5c2-2,4.4-4.3,6.9-6.6c2.9-3,5.7-5.9,8.4-8.7
	c19.5-19.5,64.5-52.9,87-75.3C600.7,198.8,606.1,192.7,611.8,185.9z"/>
<path class="st0" d="M612.3,298.7v24.1c-8.5,10.6-16.9,20.7-25.2,29.3c-10.4,12.2-20.9,23.9-30,33c-23.8,23.8-60.8,47.5-86.3,73
	c-6.7,6.7-13.6,14.7-20.6,23.2l0,0c-7,8.8-13.9,17.7-20.8,26.1l0,0c-11.1,14-22.2,27.7-33,38.5c-2.1,2.1-4.4,4.3-6.7,6.5
	c-2.3,2.4-4.5,4.7-6.6,6.8c-23.8,23.8-60.8,47.5-86.3,73c-7.3,7.4-14.2,15.1-20.6,23.2l0,0c-6.9,8.7-13.8,17.5-20.7,25.9
	c-4.5,5.7-9.9,11.6-14.7,16.9h-34c3.5-3.8,7.2-7.4,10.5-10.8c19.5-19.5,64.6-52.8,87-75.3c20-20,47.6-59.3,73.8-85.5
	c1.8-1.8,3.8-3.7,6-5.8c2.5-2.6,5-5.2,7.4-7.6c19.5-19.5,64.5-52.8,87-75.3c20-20,47.6-59.3,73.8-85.5c2-2,4.3-4.2,6.9-6.6
	c2.9-3,5.7-5.9,8.4-8.7C577.8,326.9,595,312.9,612.3,298.7z"/>
<path class="st0" d="M611.9,409v37.5c-23.8,22.8-58.8,45.6-83.2,70c-6.8,6.8-13.7,14.7-20.7,23.2l0,0c-6.9,8.8-13.9,17.7-20.8,26
	l0,0c-11.1,14-22.2,27.7-33,38.5c-2.1,2.1-4.4,4.3-6.7,6.5c-2.3,2.4-4.5,4.7-6.6,6.8c-23.8,23.9-61.1,47.6-86.5,73
	c-2.4,2.4-5.2,5-7.6,7.7h-15.7c11.9-9.9,23-19.6,31.2-27.8c20-20,47.6-59.3,73.8-85.5c1.8-1.8,3.8-3.7,6-5.8c2.5-2.6,5-5.2,7.4-7.6
	c19.5-19.5,64.5-52.8,87-75.3c20-20,47.6-59.3,73.8-85.5L611.9,409z"/>
<path class="st0" d="M294.5,0c-16.3,12.7-32.9,25.7-46.4,39.2c-24,24-50.2,63.5-74.5,87.8c-2.4,2.4-5,4.9-7.7,7.5
	c-2.6,2.8-5.2,5.4-7.6,7.8c-23.8,23.8-60.8,47.5-86.4,73.2c-23.1,23.1-48.3,60.7-71.8,85.1V268c21.8-18.5,50.7-41,67.2-57.5
	c20-20,47.6-59.3,73.8-85.5c2.1-2,4.4-4.2,6.9-6.6c2.8-3.1,5.7-5.9,8.4-8.7c19.6-19.6,64.6-52.9,87-75.3c8.7-8.7,18.8-21,29.7-34.4
	H294.5z"/>
<path class="st0" d="M416.2,0c-3.5,4-7,7.7-10.4,11.2c-2.1,2.1-4.4,4.3-6.7,6.5c-2.3,2.2-4.5,4.7-6.6,6.8
	c-23.8,23.8-60.8,47.5-86.3,73c-24,24-50.2,63.5-74.5,87.8c-2.4,2.4-5,4.9-7.7,7.5c-2.6,2.8-5.1,5.4-7.6,7.8l-0.3,0.3
	c-11.3,11.2-25.5,22.4-40,33.8l-46,38.9c-24,24-50.2,63.5-74.5,87.8c-2.1,2.1-4.4,4.3-6.7,6.5c-2.3,2.4-4.5,4.7-6.6,6.8
	c-11.7,11.7-26.8,23.5-42.1,35.5v-25.3C8.5,375,17,365.3,25.3,357c1.8-1.8,3.8-3.7,6-5.8c2.5-2.6,5-5.2,7.4-7.6
	c19.5-19.5,64.6-52.8,87-75.3c20-20,47.6-59.3,73.8-85.5c2-2,4.3-4.2,6.9-6.6c2.9-3,5.7-5.9,8.4-8.7c19.5-19.5,64.6-52.9,87-75.3
	c20-20,47.6-59.3,73.8-85.5c1.8-1.8,3.8-3.7,6-5.8c0.3-0.3,0.6-0.6,0.8-0.9H416.2z"/>
<path class="st0" d="M521.8,0c-19.1,22.7-39,50.5-57.8,69.3c-2.1,2.1-4.4,4.3-6.7,6.5c-2.3,2.4-4.5,4.7-6.6,6.8
	c-23.8,23.8-60.8,47.5-86.3,73c-24,24-50.2,63.5-74.5,87.8c-2.4,2.4-5,4.9-7.7,7.5c-2.6,2.8-5.1,5.4-7.6,7.8
	c-23.8,23.8-60.8,47.5-86.3,72.9c-24,24-50.2,63.5-74.5,87.8c-2.1,2.1-4.4,4.3-6.7,6.5c-2.3,2.4-4.5,4.7-6.6,6.8
	c-23.8,23.8-60.8,47.5-86.3,73C9.7,510.2,5,515.4,0.2,521v-11.4c3.5-3.1,6.7-6.2,9.5-9c20-20,47.6-59.3,73.8-85.5
	c1.8-1.8,3.8-3.7,6-5.8c2.5-2.6,5-5.2,7.4-7.6c19.5-19.5,64.6-52.8,87-75.3c20-20,47.6-59.3,73.8-85.5c2-2,4.3-4.3,6.9-6.6
	c2.9-3,5.7-5.9,8.4-8.7c19.5-19.5,64.5-52.9,87-75.3c20-20,47.6-59.3,73.8-85.5c1.8-1.8,3.8-3.7,6-5.8c2.5-2.7,5-5.2,7.4-7.6
	c13.3-13.3,38.4-33,60.2-51.4H521.8z"/>
<path class="st0" d="M612.3,12v13.4c-5.5,4.7-10.7,9.5-15.5,14.3c-24,24-50.2,63.5-74.5,87.8c-2.1,2.1-4.4,4.3-6.7,6.5
	c-2.3,2.4-4.5,4.7-6.6,6.8c-0.7,0.7-1.5,1.5-2.3,2.2v0.1c-1.3,1.4-2.7,2.7-4,4c-22.9,22.9-58.1,45.8-83.4,70.1
	c-23,24.2-47.9,61.2-71,84.3l-3,3c-1,1-2.2,2.3-3.3,3.4c-1.6,1.6-3.3,3.2-5,4.9l0,0c-1.4,1.4-2.7,2.7-4,4l-1.1,1.1l-0.1,0.1
	c-1.1,1.1-2.1,2.2-3.2,3.2c-23.3,23.3-59.2,46.5-84.6,71.3c-23.3,24.2-48.4,61.7-71.8,85.1l-1.8,1.8c-0.9,0.9-1.7,1.8-2.6,2.6
	c-1.6,1.6-3.2,3.1-4.9,4.8l0,0c-1.4,1.4-2.7,2.8-4.1,4.2l-2.3,2.3c-1.4,1.4-2.7,2.8-4,4.1c-23,23-58.2,45.9-83.5,70.3
	c-22,23-45.9,58-68.1,81.2L0,649.8l0.2-32.9c20.6-17.5,47.7-38.7,64.7-55c19.7-20.8,45.7-57.3,70.5-82.1c0.8-0.8,1.7-1.7,2.6-2.6
	l0,0c1.2-1.3,2.4-2.5,3.7-3.8s2.9-2.8,4.4-4.3s3-3.1,4.5-4.6l0.9-0.9l0,0c1.2-1.2,2.3-2.4,3.5-3.5c19-19,62.1-51,85-73.4
	c19.8-20.6,46.2-57.8,71.3-83l1.4-1.4l0,0l3-3c1.4-1.4,2.9-2.8,4.5-4.3s3-3.1,4.5-4.6l1.8-1.8l0.1-0.1c1.5-1.5,3-3,4.4-4.5
	c18.7-18.7,60.7-50,84-72.3c19.7-20.8,45.7-57.3,70.5-82.1c0.8-0.8,1.7-1.6,2.6-2.5l0,0c1.2-1.3,2.5-2.5,3.7-3.8
	c1.8-1.8,3.8-3.7,6-5.8c2.5-2.7,5-5.2,7.4-7.6c19.5-19.5,64.6-52.9,87-75.3C598.3,28.6,605.1,20.7,612.3,12z"/>
<path class="st0" d="M612.3,126.3v22.4c-10.8,13.5-21.5,26.7-31.8,37c-2.1,2.1-4.4,4.3-6.7,6.5c-2.3,2.4-4.5,4.7-6.6,6.8
	c-0.7,0.8-1.5,1.5-2.3,2.2l-0.1,0.1c-1.3,1.4-2.7,2.8-4,4.1c-22.9,22.9-58.1,45.7-83.4,70.2c-23,24.2-47.9,61.2-71,84.3l-3,3
	c-1,1-2.2,2.3-3.3,3.4c-1.6,1.6-3.3,3.3-5,4.9c-1.3,1.4-2.6,2.7-3.9,4l-1.3,1.3l-3.1,3.2c-23.3,23.3-59.2,46.4-84.6,71.2
	c-23.3,24.2-48.4,61.7-71.8,85.1l-1.7,1.7c-0.9,0.9-1.8,1.8-2.6,2.7c-1.6,1.5-3.2,3.1-4.9,4.8l0,0c-1.4,1.4-2.8,2.8-4.1,4.2
	c-0.7,0.7-1.5,1.5-2.3,2.2l0,0c-1.4,1.4-2.7,2.8-4,4.1c-22.9,22.9-58.2,45.8-83.5,70.2c-19.4,20.4-40.4,49.7-60.2,72.3H33.5l5.7-5.5
	c18.7-18.7,60.8-50,84-72.4c19.7-20.8,45.7-57.3,70.5-82.1c0.8-0.8,1.7-1.7,2.6-2.6l0,0c1.2-1.3,2.5-2.5,3.7-3.8s2.9-2.8,4.4-4.3
	s3-3.1,4.5-4.6l0.9-0.9l0,0c1.2-1.2,2.3-2.4,3.4-3.5c19-19,62.1-51,85.1-73.4c19.8-20.7,46.1-57.8,71.3-82.9l1.4-1.4l0,0l3-3
	c1.3-1.3,2.8-2.8,4.4-4.3l0,0c1.5-1.6,3.1-3.1,4.6-4.7c0.6-0.6,1.2-1.2,1.9-1.8l0,0c1.5-1.5,3-3,4.4-4.5
	c18.7-18.7,60.7-50,83.9-72.3c19.8-20.9,45.8-57.4,70.6-82.2c0.8-0.8,1.7-1.7,2.6-2.5l0,0c1.2-1.3,2.5-2.5,3.7-3.8
	c1.8-1.8,3.8-3.7,6-5.8c2.5-2.6,5-5.2,7.4-7.6C574.5,157.1,593.7,141.6,612.3,126.3z"/>
<path class="st0" d="M611.9,235.8V270c-22.7,20.8-53.8,41.6-76.7,63.8c-23.1,24.2-47.9,61.2-71,84.3c-1,1-2,1.9-3,2.9
	c-1.1,1.2-2.2,2.3-3.3,3.4c-1.6,1.6-3.3,3.2-5,4.9l0,0c-1.3,1.4-2.7,2.7-4,4c-0.4,0.4-0.9,0.8-1.3,1.3l-3.1,3.2
	c-23.3,23.3-59.2,46.5-84.6,71.3c-23.2,24.2-48.4,61.7-71.8,85l-1.8,1.7c-0.9,0.9-1.8,1.8-2.6,2.7c-1.5,1.5-3.2,3.1-4.9,4.8l0,0
	c-1.4,1.4-2.8,2.8-4.1,4.2l-2.3,2.3c-1.4,1.4-2.7,2.8-4,4.1c-22.9,22.9-58.1,45.8-83.5,70.2c-4.1,4.3-8,9.1-12.2,14.1h-14.4
	c8.2-7,16.2-13.7,22.6-19.8c19.7-20.7,45.7-57.1,70.5-81.9c0.8-0.8,1.7-1.7,2.6-2.5l0,0c1.2-1.3,2.5-2.5,3.7-3.8
	c1.4-1.4,2.9-2.8,4.4-4.3s3-3.1,4.5-4.6l0.7-0.7l0.1-0.1c1.2-1.2,2.4-2.4,3.6-3.6c19-19,62.2-51.1,85.1-73.5
	c19.8-20.7,46.1-57.8,71.2-82.9l1.5-1.5c1-1,1.9-2,2.9-3c1.4-1.3,2.8-2.8,4.4-4.3l0,0c1.5-1.6,3.1-3.1,4.6-4.6
	c0.6-0.6,1.2-1.2,1.9-1.8l0.1-0.1c1.5-1.5,3-3,4.4-4.5c18.7-18.7,60.7-50,84-72.3c19.7-20.8,45.7-57.3,70.5-82.1
	c0.8-0.8,1.7-1.7,2.6-2.5l0,0c1.2-1.3,2.5-2.5,3.7-3.8S610.5,237.1,611.9,235.8z"/>
<path class="st0" d="M612.3,359.9v15.6c-6.5,5.4-12.8,10.9-18.5,16.4c-23,24.2-47.9,61.2-71,84.3c-1,1-2,1.9-3,2.9
	c-1.1,1.2-2.2,2.3-3.3,3.4c-1.6,1.6-3.3,3.2-5,4.9c-1.3,1.4-2.6,2.7-3.9,4l-1.3,1.3c-1.1,1.1-2.1,2.1-3.1,3.2
	c-23.3,23.3-59.2,46.4-84.6,71.2c-23.3,24.2-48.4,61.7-71.8,85.1c-0.6,0.6-1.1,1.2-1.7,1.7c-0.9,0.9-1.8,1.8-2.6,2.7
	c-1.5,1.5-3.2,3.1-4.9,4.8l0,0c-1.4,1.4-2.7,2.8-4.1,4.2c-0.8,0.7-1.5,1.5-2.3,2.2l0,0c-1.4,1.4-2.7,2.8-4,4.1
	c-8.7,8.7-21.7,17.5-32.7,26.3l-21.4,0c12.2-15.1,24.2-31,36.9-43.7c0.8-0.8,1.7-1.7,2.6-2.5l0,0c1.2-1.3,2.5-2.5,3.7-3.8
	c1.4-1.4,2.9-2.8,4.4-4.3s3-3.1,4.5-4.6l0.7-0.7l0.1-0.1c1.2-1.2,2.4-2.4,3.6-3.6c19-19,62.1-51,85.1-73.4
	c19.8-20.7,46.1-57.8,71.3-82.9l1.5-1.5c1-1,1.9-2,2.9-3c1.4-1.3,2.8-2.8,4.4-4.3l0,0c1.5-1.6,3.1-3.1,4.6-4.7l1.9-1.9l0,0
	c1.5-1.5,3-3,4.4-4.5c18.7-18.7,60.7-50,84-72.3C596.6,379.1,604.2,369.9,612.3,359.9z"/>
<path class="st0" d="M117.4,0c-14.8,11.6-29.6,23.4-41.8,35.6c-24,24-50.2,63.5-74.5,87.8l-0.9,0.9V91.2
	c22.2-19,53.4-43.1,70.8-60.6C78.9,22.7,87.9,11.9,97.6,0H117.4z"/>
<path class="st0" d="M240.8,0c-1.8,1.9-3.6,3.8-5.4,5.6c-2.4,2.4-5,4.9-7.7,7.5c-2.6,2.8-5.2,5.4-7.6,7.8
	c-23.8,23.8-60.8,47.5-86.3,73c-24,24-50.2,63.5-74.5,87.8c-2.1,2.1-4.3,4.3-6.7,6.5c-2.3,2.4-4.5,4.6-6.7,7.1
	C33.1,208,16.6,220.7,0.1,233.7V210c9.5-11.4,19.2-22.7,28.7-32.2c1.8-1.8,3.8-3.8,6-5.8c2.5-2.7,5-5.2,7.4-7.6
	c19.6-19.5,64.6-52.9,87-75.3c20-20,47.6-59.3,73.8-85.5c1.2-1.1,2.4-2.3,3.8-3.6H240.8z"/>
<path class="st0" d="M346.8,0c-17.7,21.6-35.9,46.5-53.2,63.8c-2.4,2.4-5,4.9-7.7,7.5c-2.6,2.7-5.2,5.4-7.6,7.8
	c-23.8,23.8-60.8,47.5-86.3,73c-24,24-50.2,63.5-74.5,87.8c-2.1,2.1-4.3,4.3-6.7,6.5c-2.2,2.4-4.5,4.7-6.6,6.8
	c-23.8,23.8-60.8,47.5-86.4,73C12,332,6.1,338.7,0.1,345.9v-12.5c4.9-4.3,9.4-8.4,13.1-12.3c20-20,47.6-59.3,73.8-85.5
	c1.8-1.8,3.8-3.8,6-5.8c2.5-2.6,5-5.2,7.4-7.6c19.6-19.5,64.6-52.9,87-75.3c20-20,47.6-59.2,73.9-85.1c2.1-2,4.4-4.2,6.9-6.6
	c2.8-3.1,5.6-6,8.4-8.7c12.2-12.1,34.2-29.6,54.5-46.5H346.8z"/>
<path class="st0" d="M466.2,0c-14.1,11.1-28.2,22.4-39.9,34.1c-24,24-50.2,63.5-74.5,87.8c-2.4,2.4-5,4.9-7.7,7.5
	c-2.6,2.8-5.1,5.4-7.6,7.8c-23.8,23.8-60.8,47.5-86.3,72.9c-24,24-50.2,63.5-74.5,87.8c-2.1,2.1-4.4,4.3-6.7,6.5
	c-2.3,2.4-4.5,4.7-6.6,6.8c-23.8,23.8-60.8,47.5-86.3,73c-24,24-50.2,63.5-74.5,87.8l-1.4,1.4V440c22.2-19.1,53.7-43.4,71.3-61
	c20-20,47.6-59.3,73.8-85.5c1.8-1.8,3.8-3.7,6-5.8c2.5-2.7,5-5.2,7.4-7.6c19.5-19.5,64.6-52.9,87-75.3c20-20,47.6-59.3,73.8-85.5
	c2-2,4.4-4.3,6.9-6.6c2.9-3,5.7-5.9,8.4-8.7c19.5-19.5,64.5-52.9,87-75.3c7.4-7.4,15.9-17.6,25-28.7H466.2z"/>
<path class="st0" d="M67.1,0c-3.3,3.8-6.6,7.3-9.9,10.6c-2.4,2.4-5,4.9-7.7,7.5c-2.7,2.8-5.2,5.4-7.6,8
	C30.2,37.8,15.3,49.4,0.2,61.3V35.9c8.2-9.7,16.5-19.2,24.6-27.4c2.1-2,4.4-4.2,6.9-6.6c0.6-0.6,1.2-1.3,1.7-1.9H67.1z"/>
<path class="st0" d="M172.7,0c-19,22.6-38.7,50.2-57.3,68.8c-2.4,2.4-5,4.9-7.7,7.5c-2.6,2.7-5.2,5.4-7.6,7.8
	c-23.8,23.8-60.9,47.5-86.4,73c-4.5,4.5-9,9.5-13.6,14.8v-11.2c3.3-3,6.4-5.9,9.1-8.6c20-20,47.6-59.3,73.8-85.5
	c2-2,4.3-4.2,6.8-6.6c2.8-3.1,5.7-5.9,8.4-8.7c13.3-13.3,38.4-33,60.1-51.3H172.7z"/>
</svg>
