<?xml version="1.0" encoding="utf-8"?>
<!-- Generator: Adobe Illustrator 19.2.0, SVG Export Plug-In . SVG Version: 6.00 Build 0)  -->
<svg version="1.1" id="Layer_1" xmlns="http://www.w3.org/2000/svg" xmlns:xlink="http://www.w3.org/1999/xlink" x="0px" y="0px"
	 viewBox="0 0 611.8 945.8" style="enable-background:new 0 0 611.8 945.8;" xml:space="preserve">
<path d="M612.3,783.2v17.1c-8.7,7-17,14.4-25,22.2c-24,24-50.2,63.5-74.5,87.8c-2.1,2.1-4.4,4.3-6.7,6.5c-2.3,2.4-4.5,4.7-6.6,6.8
	c-8.1,7.9-16.6,15.4-25.5,22.4h-26.7c11.4-14,23.4-28.3,35.1-40c1.8-1.8,3.8-3.7,6-5.8c2.5-2.6,5-5.2,7.4-7.6
	c19.5-19.5,64.6-52.8,87-75.3C591.4,808.8,601.5,796.5,612.3,783.2z"/>
<path d="M612.3,901.2v18.3c-7.1,9-14.2,18-21.3,26.6h-32C572.6,933.6,593.5,917,612.3,901.2z"/>
<path d="M612.3,724.6v19.9c-12.7,16.1-25.5,32.2-37.7,44.4c-2.1,2.1-4.4,4.3-6.7,6.5c-2.3,2.4-4.5,4.7-6.6,6.8
	c-23.8,23.8-60.8,47.5-86.3,73c-19,19-39.4,47.8-59.1,71h-33.1l0.7-0.7c19.5-19.5,64.5-52.9,87-75.3c20-20,47.6-59.3,73.8-85.5
	c1.8-1.8,3.8-3.7,6-5.8c2.5-2.6,5-5.2,7.4-7.6C569.8,759.1,592,741.5,612.3,724.6z"/>
<path d="M612.3,833v34.3c-23.6,21.5-56.1,43.1-79.1,66.1c-3.9,3.9-7.8,8.2-11.8,12.8h-12.3c7.4-6.3,14.1-12.4,19.5-17.8
	c20-20,47.6-59.3,73.8-85.5c1.8-1.8,3.8-3.7,6-5.8C609.7,835.7,611,834.3,612.3,833z"/>
<path d="M612.3,197.7v24c-9.5,11.9-19,23.3-28.2,32.5c-2.1,2.1-4.4,4.3-6.7,6.5c-2.3,2.4-4.5,4.7-6.6,6.8
	C547,291.3,510,315,484.5,340.4c-23.1,23.1-48.3,60.7-71.9,85.1c-10.4,12.2-20.9,23.9-30,33c-23.8,23.8-60.8,47.5-86.3,73
	c-6.7,6.8-13.6,14.7-20.6,23.2l0,0c-7,8.8-13.9,17.7-20.8,26.1l0,0c-11.1,14-22.2,27.7-33,38.5c-2.1,2.1-4.4,4.3-6.7,6.5
	c-2.3,2.4-4.5,4.7-6.6,6.8c-23.8,23.8-60.8,47.5-86.3,73c-6.7,6.8-13.7,14.7-20.7,23.2l0,0c-7,8.8-13.9,17.7-20.8,26.1l0,0
	c-11.1,14-22.2,27.7-33,38.5c-2.4,2.4-5,4.9-7.7,7.5c-2.6,2.8-5.1,5.4-7.6,7.8C23.2,818,12,827.2,0.2,836.5v-29
	c2.4-2.7,4.8-5.4,7.2-8c11.8-13.7,24.2-27.5,35.4-38.7c19.5-19.5,64.5-52.8,87-75.3c20-20,47.6-59.3,73.8-85.5
	c1.8-1.8,3.8-3.7,6-5.8c2.5-2.7,5-5.2,7.4-7.6c19.5-19.5,64.6-52.8,87-75.3c20-20,47.6-59.3,73.8-85.5c2-2,4.3-4.3,6.9-6.6
	c2.9-3,5.7-5.9,8.4-8.7c19.5-19.5,64.5-52.9,87-75.3c20-20,47.6-59.3,73.8-85.5c1.8-1.8,3.8-3.7,6-5.8c2.5-2.6,5-5.2,7.4-7.6
	C577.4,226.2,594.9,212.1,612.3,197.7z"/>
<path d="M612.3,307.7v33.1c-22.3,18.8-49.6,37.8-69.7,57.9c-23.2,23.1-48.4,60.8-71.9,85.2c-10.4,12.2-20.9,23.9-30,33l-86.3,73
	c-6.8,6.7-13.7,14.7-20.6,23.2l0,0c-6.9,8.8-13.9,17.6-20.8,26l0,0c-11.1,14-22.2,27.8-33,38.5c-2.1,2.1-4.4,4.3-6.7,6.5
	c-2.3,2.4-4.5,4.7-6.6,6.8c-23.8,23.8-60.8,47.5-86.3,73c-6.8,6.7-13.7,14.7-20.6,23.2l0,0c-6.9,8.7-13.9,17.6-20.8,26l0,0
	c-11.1,14-22.2,27.8-33,38.5c-2.4,2.4-5,4.9-7.7,7.5c-2.6,2.8-5.1,5.4-7.6,7.8L4.4,940c-1.4,1.3-2.9,2.7-4.2,4.2v-9.7
	c17.9-18.1,41.8-51.3,65.4-76.7c11.8-13.7,24.2-27.5,35.4-38.7c19.5-19.5,64.5-52.8,87-75.3c20-20,47.6-59.3,73.8-85.5
	c1.8-1.8,3.8-3.7,6-5.8c2.5-2.6,5-5.2,7.4-7.6c19.5-19.5,64.5-52.8,87-75.3c20-20,47.6-59.3,73.8-85.5c2-2,4.3-4.3,6.9-6.6
	c2.9-3,5.7-5.9,8.4-8.7c19.5-19.5,64.5-52.9,87-75.3c20-20,47.6-59.3,73.8-85.5L612.3,307.7z"/>
<path d="M612.3,434v12.1c-4,3.5-7.8,7.1-11.5,10.7C577.7,480,552.5,517.6,529,542l0,0c-10.5,12.2-20.9,23.9-30,33
	c-23.8,23.8-60.8,47.5-86.3,73c-6.7,6.7-13.7,14.7-20.7,23.2l0,0c-6.9,8.8-13.9,17.7-20.8,26l0,0c-11.1,14-22.2,27.7-33,38.5
	c-2.1,2.1-4.4,4.3-6.7,6.5c-2.3,2.4-4.5,4.7-6.6,6.8c-23.8,23.8-60.8,47.5-86.3,73c-6.7,6.7-13.6,14.7-20.6,23.2l0,0
	c-7,8.8-13.9,17.7-20.8,26.1l0,0c-11.1,14-22.2,27.7-33,38.5c-2.4,2.4-5,4.9-7.7,7.5c-2.6,2.8-5.1,5.4-7.6,7.8
	c-7.6,7.4-15.5,14.4-23.7,21H97.9c8.5-10.3,17.2-20.8,25.9-30.2c11.8-13.7,24.2-27.5,35.4-38.7c19.5-19.5,64.6-52.8,87-75.3
	c20-20,47.6-59.3,73.8-85.5c1.8-1.8,3.8-3.7,6-5.8c2.5-2.6,5-5.2,7.4-7.6c19.5-19.5,64.6-52.8,87-75.3c20-20,47.6-59.3,73.8-85.5
	c2-2,4.4-4.3,6.9-6.6c2.9-3,5.7-5.9,8.4-8.7c19.5-19.5,64.5-52.9,87-75.3C601.2,446.9,606.6,440.8,612.3,434z"/>
<path d="M612.3,546.8v24.1c-8.5,10.6-16.9,20.7-25.2,29.3c-10.4,12.2-20.9,23.9-30,33c-23.8,23.8-60.8,47.5-86.3,73
	c-6.7,6.7-13.6,14.7-20.6,23.2l0,0c-7,8.8-13.9,17.7-20.8,26.1l0,0c-11.1,14-22.2,27.7-33,38.5c-2.1,2.1-4.4,4.3-6.7,6.5
	c-2.3,2.4-4.5,4.7-6.6,6.8c-23.8,23.8-60.8,47.5-86.3,73c-7.3,7.4-14.2,15.1-20.6,23.2l0,0c-6.9,8.7-13.8,17.5-20.7,25.9
	c-4.5,5.7-9,11.3-13.5,16.8H207c3.5-3.8,7-7.3,10.3-10.7c19.5-19.5,64.6-52.8,87-75.3c20-20,47.6-59.3,73.8-85.5
	c1.8-1.8,3.8-3.7,6-5.8c2.5-2.6,5-5.2,7.4-7.6c19.5-19.5,64.5-52.8,87-75.3c20-20,47.6-59.3,73.8-85.5c2-2,4.3-4.2,6.9-6.6
	c2.9-3,5.7-5.9,8.4-8.7C577.8,575,595,561,612.3,546.8z"/>
<path d="M612.3,656.9v37.5c-23.8,22.8-58.8,45.6-83.2,70c-6.8,6.8-13.7,14.7-20.7,23.2l0,0c-6.9,8.8-13.9,17.7-20.8,26l0,0
	c-11.1,14-22.2,27.7-33,38.5c-2.1,2.1-4.4,4.3-6.7,6.5c-2.3,2.4-4.5,4.7-6.6,6.8c-23.8,23.9-60.9,47.6-86.3,73
	c-2.4,2.4-4.9,5-7.3,7.7h-16.4c11.9-9.9,23.1-19.6,31.3-27.8c20-20,47.6-59.3,73.8-85.5c1.8-1.8,3.8-3.7,6-5.8
	c2.5-2.6,5-5.2,7.4-7.6c19.5-19.5,64.5-52.8,87-75.3c20-20,47.6-59.3,73.8-85.5L612.3,656.9z"/>
<path d="M158.3,390.4c2.4-2.4,5-5,7.6-7.8c2.7-2.6,5.3-5.1,7.7-7.5c24.3-24.3,50.5-63.8,74.5-87.8c25.5-25.5,62.5-49.2,86.3-72.9
	c2.1-2.1,4.4-4.4,6.6-6.8c2.4-2.2,4.6-4.4,6.7-6.5c24.3-24.3,50.5-63.8,74.5-87.8c25.5-25.5,62.5-49.2,86.3-73
	c10.9-10.9,23.8-25.5,36.1-40.2h-28.6c-9.7,8.5-18.4,16.4-24.6,22.7c-26.2,26.2-53.8,65.5-73.8,85.5c-22.4,22.4-67.4,55.8-87,75.3
	c-2.4,2.4-4.9,5-7.4,7.6c-2.2,2-4.2,4-6,5.8c-26.2,26.2-53.8,65.5-73.8,85.5c-22.4,22.4-67.4,55.7-87,75.3c-2.7,2.8-5.6,5.6-8.4,8.7
	c-2.5,2.4-4.8,4.6-6.9,6.6c-26.2,26.2-53.8,65.5-73.8,85.5c-16.5,16.5-45.4,39-67.2,57.5v32.6c23.5-24.4,48.7-62,71.8-85.1
	C97.5,437.9,134.5,414.2,158.3,390.4z"/>
<path d="M612.3,25.8v21c-15,18.3-31.9,37.9-45.7,51.7l-0.3,0.3c-11.3,11.2-25.5,22.4-40,33.8l-46,38.9c-24,24-50.2,63.5-74.5,87.8
	c-2.1,2.1-4.4,4.3-6.7,6.5s-4.5,4.7-6.6,6.8c-23.8,23.8-60.8,47.5-86.3,73c-24,24-50.2,63.5-74.5,87.8c-2.4,2.4-5,4.9-7.7,7.5
	c-2.6,2.8-5.1,5.4-7.6,7.8l-0.3,0.3c-11.3,11.2-25.5,22.4-40,33.8l-46,38.9c-24,24-50.2,63.5-74.5,87.8c-2.1,2.1-4.4,4.3-6.7,6.5
	c-2.3,2.4-4.5,4.7-6.6,6.8c-11.7,11.7-26.8,23.5-42.1,35.5v-25.3c8.3-9.9,16.8-19.6,25.1-27.9c1.8-1.8,3.8-3.7,6-5.8
	c2.5-2.6,5-5.2,7.4-7.6c19.5-19.5,64.6-52.8,87-75.3c20-20,47.6-59.3,73.8-85.5c2-2,4.3-4.2,6.9-6.6c2.9-3,5.7-5.9,8.4-8.7
	c19.5-19.5,64.6-52.9,87-75.3c20-20,47.6-59.3,73.8-85.5c1.8-1.8,3.8-3.7,6-5.8c2.5-2.6,5-5.2,7.4-7.6c19.5-19.5,64.6-52.9,87-75.3
	c20-20,47.6-59.3,73.8-85.5C563.7,66.8,590.2,44.2,612.3,25.8z"/>
<path d="M612.3,134.7v33.5c-23,20-52.4,40-73.7,61.4c-24,24-50.2,63.5-74.5,87.8c-2.1,2.1-4.4,4.3-6.7,6.5c-2.3,2.4-4.5,4.7-6.6,6.8
	c-23.8,23.8-60.8,47.5-86.3,73c-24,24-50.2,63.5-74.5,87.8c-2.4,2.4-5,4.9-7.7,7.5c-2.6,2.8-5.1,5.4-7.6,7.8
	c-23.8,23.8-60.8,47.5-86.3,72.9c-24,24-50.2,63.5-74.5,87.8c-2.1,2.1-4.4,4.3-6.7,6.5c-2.3,2.4-4.5,4.7-6.6,6.8
	c-23.8,23.8-60.8,47.5-86.3,73c-4.6,4.5-9.3,9.7-14.1,15.3v-11.4c3.5-3.1,6.7-6.2,9.5-9c20-20,47.6-59.3,73.8-85.5
	c1.8-1.8,3.8-3.7,6-5.8c2.5-2.6,5-5.2,7.4-7.6c19.5-19.5,64.6-52.8,87-75.3c20-20,47.6-59.3,73.8-85.5c2-2,4.3-4.3,6.9-6.6
	c2.9-3,5.7-5.9,8.4-8.7c19.5-19.5,64.5-52.9,87-75.3c20-20,47.6-59.3,73.8-85.5c1.8-1.8,3.8-3.7,6-5.8c2.5-2.7,5-5.2,7.4-7.6
	c19.5-19.5,64.5-52.9,87-75.3c20-20,47.6-59.3,73.8-85.5C609.2,137.7,610.7,136.2,612.3,134.7z"/>
<path d="M612.3,260.1v13.4c-5.5,4.7-10.7,9.5-15.5,14.3c-24,24-50.2,63.5-74.5,87.8c-2.1,2.1-4.4,4.3-6.7,6.5
	c-2.3,2.4-4.5,4.7-6.6,6.8c-0.7,0.7-1.5,1.5-2.3,2.2v0.1c-1.3,1.4-2.7,2.7-4,4c-22.9,22.9-58.1,45.8-83.4,70.1
	c-23,24.2-47.9,61.2-71,84.3l-3,3c-1,1-2.2,2.3-3.3,3.4c-1.6,1.6-3.3,3.2-5,4.9l0,0c-1.4,1.4-2.7,2.7-4,4l-1.1,1.1l-0.1,0.1
	c-1.1,1.1-2.1,2.2-3.2,3.2c-23.3,23.3-59.2,46.5-84.6,71.3c-23.3,24.2-48.4,61.7-71.8,85.1l-1.8,1.8c-0.9,0.9-1.7,1.8-2.6,2.6
	c-1.6,1.6-3.2,3.1-4.9,4.8l0,0c-1.4,1.4-2.7,2.8-4.1,4.2l-2.3,2.3c-1.4,1.4-2.7,2.8-4,4.1c-23,23-58.2,45.9-83.5,70.3
	C47,838.8,23.1,873.8,0.9,897L0,897.9L0.2,865c20.6-17.5,47.7-38.7,64.7-55c19.7-20.8,45.7-57.3,70.5-82.1c0.8-0.8,1.7-1.7,2.6-2.6
	l0,0c1.2-1.3,2.4-2.5,3.7-3.8s2.9-2.8,4.4-4.3s3-3.1,4.5-4.6l0.9-0.9l0,0c1.2-1.2,2.3-2.4,3.5-3.5c19-19,62.1-51,85-73.4
	c19.8-20.6,46.2-57.8,71.3-83l1.4-1.4l0,0l3-3c1.4-1.4,2.9-2.8,4.5-4.3s3-3.1,4.5-4.6l1.8-1.8l0.1-0.1c1.5-1.5,3-3,4.4-4.5
	c18.7-18.7,60.7-50,84-72.3c19.7-20.8,45.7-57.3,70.5-82.1c0.8-0.8,1.7-1.6,2.6-2.5l0,0c1.2-1.3,2.5-2.5,3.7-3.8
	c1.8-1.8,3.8-3.7,6-5.8c2.5-2.7,5-5.2,7.4-7.6c19.5-19.5,64.6-52.9,87-75.3C598.3,276.7,605.1,268.8,612.3,260.1z"/>
<path d="M612.3,374.4v22.4c-10.8,13.5-21.5,26.7-31.8,37c-2.1,2.1-4.4,4.3-6.7,6.5c-2.3,2.4-4.5,4.7-6.6,6.8
	c-0.7,0.8-1.5,1.5-2.3,2.2l-0.1,0.1c-1.3,1.4-2.7,2.8-4,4.1c-22.9,22.9-58.1,45.7-83.4,70.2c-23,24.2-47.9,61.2-71,84.3l-3,3
	c-1,1-2.2,2.3-3.3,3.4c-1.6,1.6-3.3,3.3-5,4.9c-1.3,1.4-2.6,2.7-3.9,4l-1.3,1.3l-3.1,3.2c-23.3,23.3-59.2,46.4-84.6,71.2
	c-23.3,24.2-48.4,61.7-71.8,85.1l-1.7,1.7c-0.9,0.9-1.8,1.8-2.6,2.7c-1.6,1.5-3.2,3.1-4.9,4.8l0,0c-1.4,1.4-2.8,2.8-4.1,4.2
	c-0.7,0.7-1.5,1.5-2.3,2.2l0,0c-1.4,1.4-2.7,2.8-4,4.1c-22.9,22.9-58.2,45.8-83.5,70.2c-19.4,20.4-40,49.7-59.8,72.3H33.6l1.1-1
	l4.5-4.5c18.7-18.7,60.8-50,84-72.4c19.7-20.8,45.7-57.3,70.5-82.1c0.8-0.8,1.7-1.7,2.6-2.6l0,0c1.2-1.3,2.5-2.5,3.7-3.8
	s2.9-2.8,4.4-4.3s3-3.1,4.5-4.6l0.9-0.9l0,0c1.2-1.2,2.3-2.4,3.4-3.5c19-19,62.1-51,85.1-73.4c19.8-20.7,46.1-57.8,71.3-82.9
	l1.4-1.4l0,0l3-3c1.3-1.3,2.8-2.8,4.4-4.3l0,0c1.5-1.6,3.1-3.1,4.6-4.7c0.6-0.6,1.2-1.2,1.9-1.8l0,0c1.5-1.5,3-3,4.4-4.5
	c18.7-18.7,60.7-50,83.9-72.3c19.8-20.9,45.8-57.4,70.6-82.2c0.8-0.8,1.7-1.7,2.6-2.5l0,0c1.2-1.3,2.5-2.5,3.7-3.8
	c1.8-1.8,3.8-3.7,6-5.8c2.5-2.6,5-5.2,7.4-7.6C574.5,405.2,593.7,389.7,612.3,374.4z"/>
<path d="M612.3,483.9v34.2c-22.7,20.8-53.8,41.6-76.7,63.8c-23.1,24.2-47.9,61.2-71,84.3c-1,1-2,1.9-3,2.9c-1.1,1.2-2.2,2.3-3.3,3.4
	c-1.6,1.6-3.3,3.2-5,4.9l0,0c-1.3,1.4-2.7,2.7-4,4c-0.4,0.4-0.9,0.8-1.3,1.3l-3.1,3.2c-23.3,23.3-59.2,46.5-84.6,71.3
	c-23.2,24.2-48.4,61.7-71.8,85l-1.8,1.7c-0.9,0.9-1.8,1.8-2.6,2.7c-1.5,1.5-3.2,3.1-4.9,4.8l0,0c-1.4,1.4-2.8,2.8-4.1,4.2l-2.3,2.3
	c-1.4,1.4-2.7,2.8-4,4.1c-22.9,22.9-58.1,45.8-83.5,70.2c-4.1,4.3-8.3,9.1-12.5,14.1h-13.8c8.2-7,15.9-13.7,22.3-19.8
	c19.7-20.7,45.7-57.1,70.5-81.9c0.8-0.8,1.7-1.7,2.6-2.5l0,0c1.2-1.3,2.5-2.5,3.7-3.8c1.4-1.4,2.9-2.8,4.4-4.3s3-3.1,4.5-4.6
	l0.7-0.7l0.1-0.1c1.2-1.2,2.4-2.4,3.6-3.6c19-19,62.2-51.1,85.1-73.5c19.8-20.7,46.1-57.8,71.2-82.9l1.5-1.5c1-1,1.9-2,2.9-3
	c1.4-1.3,2.8-2.8,4.4-4.3l0,0c1.5-1.6,3.1-3.1,4.6-4.6c0.6-0.6,1.2-1.2,1.9-1.8l0.1-0.1c1.5-1.5,3-3,4.4-4.5
	c18.7-18.7,60.7-50,84-72.3c19.7-20.8,45.7-57.3,70.5-82.1c0.8-0.8,1.7-1.7,2.6-2.5l0,0c1.2-1.3,2.5-2.5,3.7-3.8
	S610.9,485.2,612.3,483.9z"/>
<path d="M612.3,608v15.6c-6.5,5.4-12.8,10.9-18.5,16.4c-23,24.2-47.9,61.2-71,84.3c-1,1-2,1.9-3,2.9c-1.1,1.2-2.2,2.3-3.3,3.4
	c-1.6,1.6-3.3,3.2-5,4.9c-1.3,1.4-2.6,2.7-3.9,4l-1.3,1.3c-1.1,1.1-2.1,2.1-3.1,3.2c-23.3,23.3-59.2,46.4-84.6,71.2
	c-23.3,24.2-48.4,61.7-71.8,85.1c-0.6,0.6-1.1,1.2-1.7,1.7c-0.9,0.9-1.8,1.8-2.6,2.7c-1.5,1.5-3.2,3.1-4.9,4.8l0,0
	c-1.4,1.4-2.7,2.8-4.1,4.2c-0.8,0.7-1.5,1.5-2.3,2.2l0,0c-1.4,1.4-2.7,2.8-4,4.1c-8.7,8.7-19.1,17.3-30.1,26.1h-25
	c12.2-15.1,25.2-30.8,37.9-43.5c0.8-0.8,1.7-1.7,2.6-2.5l0,0c1.2-1.3,2.5-2.5,3.7-3.8c1.4-1.4,2.9-2.8,4.4-4.3s3-3.1,4.5-4.6
	l0.7-0.7l0.1-0.1c1.2-1.2,2.4-2.4,3.6-3.6c19-19,62.1-51,85.1-73.4c19.8-20.7,46.1-57.8,71.3-82.9l1.5-1.5c1-1,1.9-2,2.9-3
	c1.4-1.3,2.8-2.8,4.4-4.3l0,0c1.5-1.6,3.1-3.1,4.6-4.7l1.9-1.9l0,0c1.5-1.5,3-3,4.4-4.5c18.7-18.7,60.7-50,84-72.3
	C596.6,627.2,604.2,618,612.3,608z"/>
<path d="M21.3,0H0.2v23.2l2.4-2.4C8.8,14.7,15,7.6,21.3,0z"/>
<path d="M53.1,86.5c2.7-2.6,5.3-5.1,7.7-7.5C82.3,57.5,105.3,24.1,127,0h-11.1C92.2,20.8,59.6,45.7,43.8,61.5
	c-2.8,2.7-5.6,5.7-8.4,8.7c-2.5,2.4-4.8,4.6-6.9,6.6c-9.4,9.4-19,20.5-28.3,31.7v23.9c16.4-12.8,32.7-25.4,45.3-38
	C48,91.9,50.5,89.3,53.1,86.5z"/>
<path d="M103.7,152.5c2.4-2.4,5-5.1,7.6-7.8c2.7-2.6,5.3-5.1,7.7-7.5c24.3-24.3,50.5-63.8,74.5-87.8c17.1-17.1,39.4-33.4,59.4-49.4
	h-26.1c-13.9,17-27,33.6-37.8,44.4c-22.4,22.4-67.4,55.7-87,75.3c-2.8,2.7-5.6,5.7-8.4,8.7c-2.5,2.4-4.8,4.6-6.8,6.6
	c-26.2,26.2-53.8,65.5-73.8,85.5c-3.7,3.7-8,7.7-12.7,11.8v12.3c5.8-7,11.6-13.4,17.2-19.1C42.9,200,79.9,176.3,103.7,152.5z"/>
<path d="M75.6,283.7c25.5-25.5,62.5-49.2,86.3-72.9c2.4-2.4,5-5.1,7.6-7.8c2.7-2.6,5.3-5.1,7.7-7.5c24.3-24.3,50.5-63.8,74.5-87.8
	c25.5-25.5,62.5-49.2,86.3-72.9c2.1-2.1,4.4-4.4,6.6-6.8c2.4-2.2,4.6-4.4,6.7-6.5C357.6,15.1,364,7.8,370.5,0h-32.3l-3.9,3.8
	c-2.4,2.4-4.9,5-7.4,7.6c-2.2,2-4.2,4-6,5.8c-26.2,26.2-53.8,65.5-73.8,85.5c-22.4,22.4-67.4,55.8-87,75.3c-2.8,2.7-5.6,5.6-8.4,8.7
	c-2.5,2.4-4.8,4.6-6.9,6.6C118.6,219.4,91,258.7,71,278.7c-17.4,17.5-48.6,41.6-70.8,60.6v33.1l0.9-0.9
	C25.4,347.2,51.6,307.7,75.6,283.7z"/>
<path d="M52.6,436.3c2.4-2.2,4.6-4.4,6.7-6.5c24.3-24.3,50.5-63.8,74.5-87.8c25.5-25.5,62.5-49.2,86.3-73c2.4-2.4,5-5,7.6-7.8
	c2.7-2.6,5.3-5.1,7.7-7.5c24.3-24.3,50.5-63.8,74.5-87.8c25.5-25.5,62.5-49.2,86.3-72.9c2.1-2.1,4.4-4.4,6.6-6.8
	c2.4-2.2,4.6-4.4,6.7-6.5c21.6-21.6,44.8-55.4,66.6-79.5h-11c-23.8,20.9-56.7,46-72.6,62c-2.4,2.4-4.9,5-7.4,7.6
	c-2.2,2.1-4.2,4-6,5.8c-26.2,26.2-53.8,65.5-73.8,85.5c-22.4,22.4-67.4,55.8-87,75.3c-2.8,2.7-5.6,5.6-8.4,8.7
	c-2.5,2.4-4.8,4.6-6.9,6.6c-26.2,26.2-53.8,65.5-73.8,85.5c-22.4,22.4-67.4,55.8-87,75.3c-2.4,2.4-4.9,4.9-7.4,7.6
	c-2.2,2-4.2,4-6,5.8c-9.5,9.5-19.2,20.8-28.7,32.2v23.7c16.5-13,33-25.7,45.8-38.4C48.1,440.9,50.3,438.7,52.6,436.3z"/>
<path d="M104.2,501.3c2.1-2.1,4.4-4.4,6.6-6.8c2.4-2.2,4.6-4.4,6.7-6.5c24.3-24.3,50.5-63.8,74.5-87.8c25.5-25.5,62.5-49.2,86.3-73
	c2.4-2.4,5-5.1,7.6-7.8c2.7-2.6,5.3-5.1,7.7-7.5c24.3-24.3,50.5-63.8,74.5-87.8c25.5-25.5,62.5-49.2,86.3-72.9
	c2.1-2.1,4.4-4.4,6.6-6.8s4.6-4.4,6.7-6.5c24.3-24.3,50.5-63.8,74.5-87.8c17.3-17.2,39.8-33.7,60-49.9h-26.3
	c-14,17.2-27.2,33.9-38.2,44.9c-22.4,22.4-67.4,55.7-87,75.3c-2.4,2.4-4.9,5-7.4,7.6c-2.2,2.1-4.2,4-6,5.8
	c-26.2,26.2-53.7,65.5-73.7,85.5c-22.4,22.4-67.4,55.8-87,75.3c-2.8,2.7-5.6,5.6-8.4,8.7c-2.5,2.4-4.8,4.6-6.9,6.6
	C235,335.8,207.4,375,187.4,395c-22.4,22.4-67.4,55.8-87,75.3c-2.4,2.4-4.9,5-7.4,7.6c-2.2,2-4.2,4-6,5.8
	c-26.2,26.2-53.8,65.5-73.8,85.5c-3.7,3.9-8.2,8-13.1,12.3v12.5c6-7.2,11.9-13.9,17.7-19.7C43.4,548.8,80.4,525.1,104.2,501.3z"/>
<path d="M612.3,84.7V97c-4.2,3.7-8.2,7.4-11.9,11.1c-24,24-50.2,63.5-74.5,87.8c-2.1,2.1-4.4,4.3-6.7,6.5c-2.3,2.4-4.5,4.7-6.6,6.8
	c-23.8,23.8-60.8,47.5-86.3,73c-24,24-50.2,63.5-74.5,87.8c-2.4,2.4-5,4.9-7.7,7.5c-2.6,2.8-5.1,5.4-7.6,7.8
	c-23.8,23.8-60.8,47.5-86.3,72.9c-24,24-50.2,63.5-74.5,87.8c-2.1,2.1-4.4,4.3-6.7,6.5c-2.3,2.4-4.5,4.7-6.6,6.8
	c-23.8,23.8-60.8,47.5-86.3,73c-24,24-50.2,63.5-74.5,87.8l-1.4,1.4v-33.4c22.2-19.1,53.7-43.4,71.3-61c20-20,47.6-59.3,73.8-85.5
	c1.8-1.8,3.8-3.7,6-5.8c2.5-2.7,5-5.2,7.4-7.6c19.5-19.5,64.6-52.9,87-75.3c20-20,47.6-59.3,73.8-85.5c2-2,4.4-4.3,6.9-6.6
	c2.9-3,5.7-5.9,8.4-8.7c19.5-19.5,64.5-52.9,87-75.3c20-20,47.6-59.3,73.8-85.5c1.8-1.8,3.8-3.7,6-5.8c2.5-2.6,5-5.2,7.4-7.6
	c19.5-19.5,64.5-52.8,87-75.3C600.9,98,606.5,91.7,612.3,84.7z"/>
<path d="M80.9,0H52.7c-15.4,18.8-30,37.6-42,49.5C7.6,52.6,4.1,56,0.2,59.4v11.6c5.1-6,10.1-11.6,15.1-16.5
	C34.2,35.6,59.4,17.7,80.9,0z"/>
<path d="M159.7,39.8c2.1-2.1,4.4-4.4,6.6-6.8c2.4-2.2,4.6-4.4,6.7-6.5c8.2-8.4,16-17.2,23.3-26.4h-30.9c-3.6,3.2-6.8,6.2-9.5,8.9
	c-2.4,2.4-4.9,5-7.4,7.6c-2.2,2-4.2,4-6,5.8c-26.2,26.2-53.8,65.5-73.8,85.5C52,124.6,22.2,147.8,0.2,166.5v32.8
	c23.9-24.4,49.7-63,73.3-86.6C98.9,87.3,135.9,63.6,159.7,39.8z"/>
<path d="M49.5,266.2c2.7-2.6,5.3-5.1,7.7-7.5c24.3-24.3,50.5-63.8,74.5-87.8c25.5-25.5,62.5-49.2,86.3-72.9c2.1-2.1,4.4-4.4,6.6-6.8
	c2.4-2.2,4.6-4.4,6.7-6.5c23.2-23.2,48.2-60.4,71.4-84.6h-10.1c-23.9,21.8-61,49.8-78.3,67c-2.4,2.4-4.9,5-7.4,7.6
	c-2.2,2-4.2,4-6,5.8c-26.2,26.2-53.8,65.5-73.8,85.5c-22.4,22.4-67.4,55.8-87,75.3c-2.7,2.8-5.6,5.6-8.4,8.7
	c-2.5,2.4-4.8,4.6-6.9,6.6c-8.1,8.2-16.4,17.7-24.6,27.4v25.4c15.1-11.9,30-23.5,41.7-35.2C44.3,271.6,46.8,269,49.5,266.2z"/>
<path d="M100.1,332.2c2.4-2.4,5-5.1,7.6-7.8c2.7-2.6,5.3-5.1,7.7-7.5c24.3-24.3,50.5-63.8,74.5-87.8c25.5-25.5,62.5-49.2,86.3-72.9
	c2.1-2.1,4.4-4.4,6.6-6.8c2.4-2.2,4.6-4.4,6.7-6.5C313.8,118.5,340,79,364,55c19-19.1,44.6-37.1,66.2-55h-28.4
	c-15.6,18.9-30.3,37.9-42.4,50c-22.4,22.4-67.4,55.7-87,75.2c-2.4,2.4-4.9,5-7.4,7.6c-2.2,2-4.2,4-6,5.8
	c-26.2,26.2-53.8,65.5-73.8,85.5c-22.4,22.4-67.4,55.7-87,75.3c-2.7,2.8-5.6,5.6-8.4,8.7c-2.5,2.4-4.8,4.6-6.8,6.6
	c-26.2,26.2-53.8,65.5-73.8,85.5c-2.7,2.7-5.8,5.6-9.1,8.6V420c4.6-5.3,9.1-10.3,13.6-14.8C39.2,379.7,76.3,356,100.1,332.2z"/>
</svg>
