<svg id="Layer_1" data-name="Layer 1" xmlns="http://www.w3.org/2000/svg" viewBox="0 0 611.83 945.83"><defs><style>.cls-1{fill:#231f20;}</style></defs><title>Pattern-Black</title><path class="cls-1" d="M612.33,783.23v17.14a331.74,331.74,0,0,0-25,22.2c-24,24-50.2,63.53-74.49,87.82q-3.18,3.18-6.73,6.54c-2.27,2.39-4.49,4.68-6.63,6.82A324.64,324.64,0,0,1,474,946.16H447.31c11.44-14,23.4-28.31,35.1-40,1.8-1.79,3.8-3.73,6-5.78,2.5-2.62,5-5.16,7.39-7.57,19.54-19.54,64.55-52.85,87-75.29C591.43,808.83,601.53,796.52,612.33,783.23Z"/><path class="cls-1" d="M612.33,901.22v18.35c-7.09,9-14.22,18-21.29,26.59H559C572.56,933.59,593.52,917,612.33,901.22Z"/><path class="cls-1" d="M612.33,724.58v19.86c-12.7,16.06-25.45,32.19-37.7,44.44q-3.18,3.18-6.73,6.54-3.41,3.6-6.62,6.82c-23.79,23.79-60.83,47.49-86.29,73-19,19-39.4,47.77-59.12,71H382.76l0.71-.72C403,926,448,892.67,470.47,870.24c20-20,47.57-59.26,73.8-85.49q2.68-2.7,6-5.78c2.5-2.63,5-5.16,7.39-7.58C569.81,759.11,592,741.53,612.33,724.58Z"/><path class="cls-1" d="M612.33,833v34.26c-23.6,21.51-56.09,43.09-79.12,66.13-3.89,3.89-7.83,8.18-11.82,12.75H509.13c7.37-6.34,14.1-12.39,19.52-17.8,20-20,47.56-59.27,73.79-85.49q2.7-2.7,6-5.79Q610.38,835,612.33,833Z"/><path class="cls-1" d="M612.33,197.68v24c-9.53,11.9-19,23.29-28.21,32.5-2.11,2.11-4.37,4.3-6.73,6.53q-3.41,3.6-6.62,6.82C547,291.28,510,315,484.49,340.44c-23.15,23.15-48.33,60.71-71.87,85.14-10.4,12.18-20.89,23.89-30,33-23.79,23.79-60.82,47.49-86.28,73-6.74,6.75-13.65,14.71-20.65,23.22h0c-7,8.76-13.92,17.67-20.84,26.08h0c-11.12,14-22.22,27.72-33,38.46-2.12,2.11-4.37,4.3-6.73,6.54-2.27,2.39-4.49,4.67-6.63,6.81-23.79,23.79-60.82,47.49-86.28,73-6.74,6.75-13.66,14.71-20.65,23.22h0c-7,8.76-13.92,17.67-20.84,26.08h0c-11.12,14-22.22,27.73-33,38.46-2.4,2.41-5,4.9-7.71,7.46-2.6,2.77-5.13,5.38-7.56,7.82C23.18,818,12,827.24.2,836.55v-29c2.4-2.72,4.8-5.4,7.19-8,11.78-13.68,24.17-27.45,35.39-38.67,19.53-19.53,64.54-52.85,87-75.28,20-20,47.56-59.26,73.79-85.49,1.8-1.79,3.8-3.73,6-5.78q3.75-4,7.39-7.58c19.53-19.53,64.55-52.85,87-75.28,20-20,47.57-59.26,73.8-85.49,2-2,4.33-4.26,6.85-6.62,2.86-3,5.68-5.92,8.42-8.66,19.54-19.54,64.55-52.85,87-75.29,20-20,47.57-59.26,73.8-85.49,1.79-1.79,3.79-3.73,6-5.78,2.51-2.62,5-5.16,7.4-7.57C577.42,226.24,594.87,212.06,612.33,197.68Z"/><path class="cls-1" d="M612.33,307.73v33.06c-22.3,18.79-49.57,37.77-69.65,57.85-23.16,23.15-48.35,60.75-71.89,85.18-10.4,12.16-20.87,23.86-30,33l-86.28,73c-6.75,6.74-13.66,14.7-20.65,23.21h0c-6.92,8.75-13.89,17.64-20.79,26h0c-11.13,14-22.24,27.76-33,38.49-2.11,2.12-4.37,4.31-6.73,6.54q-3.41,3.6-6.62,6.82c-23.79,23.79-60.82,47.49-86.28,73-6.75,6.74-13.66,14.7-20.65,23.21v0c-6.93,8.74-13.89,17.63-20.79,26v0c-11.13,14-22.24,27.76-33,38.5-2.41,2.4-5,4.9-7.71,7.46-2.6,2.76-5.13,5.38-7.57,7.81L4.44,940q-2.17,2-4.24,4.23v-9.7c17.93-18.07,41.8-51.27,65.36-76.72,11.78-13.68,24.19-27.46,35.42-38.69,19.53-19.53,64.54-52.85,87-75.28,20-20,47.57-59.27,73.8-85.5,1.79-1.79,3.79-3.73,6-5.77,2.51-2.63,5-5.17,7.4-7.58,19.53-19.54,64.54-52.85,87-75.29,20-20,47.57-59.26,73.8-85.49,2-2,4.34-4.26,6.85-6.62,2.87-3,5.68-5.91,8.43-8.66,19.53-19.53,64.54-52.85,87-75.28,20-20,47.56-59.27,73.8-85.49Z"/><path class="cls-1" d="M612.33,434v12.08c-4,3.54-7.85,7.11-11.46,10.72C577.71,480,552.51,517.62,529,542h0c-10.45,12.21-20.9,23.89-30,33-23.78,23.78-60.82,47.48-86.28,73C406,654.71,399,662.69,392,671.21h0c-6.93,8.76-13.9,17.65-20.8,26h0c-11.11,14-22.22,27.73-33,38.46q-3.18,3.18-6.73,6.54c-2.27,2.39-4.49,4.68-6.63,6.82-23.79,23.78-60.82,47.48-86.28,73-6.74,6.74-13.65,14.7-20.65,23.21h0c-7,8.76-13.92,17.67-20.84,26.08h0c-11.12,14-22.22,27.73-33,38.46-2.41,2.41-5,4.91-7.72,7.47-2.59,2.75-5.13,5.38-7.56,7.81a314.5,314.5,0,0,1-23.73,21H97.86c8.46-10.34,17.19-20.78,25.86-30.16,11.79-13.69,24.21-27.49,35.45-38.73,19.53-19.53,64.55-52.85,87-75.27,20-20,47.57-59.27,73.79-85.5,1.8-1.79,3.8-3.73,6-5.78,2.5-2.63,5-5.16,7.39-7.58,19.54-19.53,64.55-52.85,87-75.28,20-20,47.57-59.26,73.79-85.49,2-2,4.35-4.26,6.86-6.62,2.86-3,5.68-5.92,8.43-8.66,19.53-19.53,64.54-52.85,87-75.28C601.25,446.89,606.63,440.8,612.33,434Z"/><path class="cls-1" d="M612.33,546.78v24.14c-8.48,10.59-16.92,20.74-25.16,29.29-10.39,12.17-20.86,23.86-30,33-23.79,23.79-60.82,47.49-86.28,73-6.74,6.74-13.65,14.7-20.65,23.21h0c-7,8.76-13.92,17.67-20.84,26.08h0c-11.12,14-22.23,27.73-33,38.46-2.11,2.12-4.36,4.31-6.73,6.54q-3.41,3.6-6.62,6.82c-23.79,23.79-60.82,47.49-86.28,73a306.77,306.77,0,0,0-20.65,23.18h0c-6.88,8.69-13.8,17.53-20.67,25.87-4.51,5.7-9,11.34-13.51,16.75H207c3.52-3.75,7-7.33,10.33-10.69,19.54-19.53,64.55-52.85,87-75.28,20-20,47.56-59.26,73.79-85.49,1.79-1.8,3.8-3.73,6-5.78,2.5-2.63,5-5.17,7.39-7.58,19.53-19.53,64.54-52.85,87-75.28,20-20,47.56-59.27,73.79-85.5,2-2,4.34-4.25,6.86-6.61,2.86-3,5.67-5.92,8.42-8.66C577.79,575,595,561,612.33,546.78Z"/><path class="cls-1" d="M612.33,656.92v37.45c-23.82,22.8-58.83,45.58-83.24,70-6.75,6.75-13.67,14.73-20.68,23.25h0c-6.93,8.75-13.89,17.65-20.8,26h0c-11.11,14-22.22,27.73-33,38.46-2.11,2.12-4.37,4.3-6.73,6.54-2.27,2.4-4.49,4.68-6.63,6.82-23.84,23.88-60.87,47.56-86.3,73-2.41,2.41-4.85,5-7.29,7.68H331.22c11.9-9.91,23.12-19.57,31.32-27.78,20-20,47.57-59.26,73.8-85.49,1.79-1.79,3.79-3.73,6-5.78,2.51-2.62,5-5.16,7.39-7.57,19.54-19.54,64.55-52.85,87-75.29,20-20,47.57-59.26,73.8-85.49Z"/><path class="cls-1" d="M158.29,390.45c2.43-2.43,5-5,7.57-7.81,2.72-2.56,5.31-5.06,7.71-7.46,24.29-24.29,50.49-63.82,74.49-87.83,25.46-25.46,62.49-49.16,86.28-72.95,2.14-2.14,4.36-4.42,6.63-6.82,2.36-2.24,4.62-4.42,6.73-6.54,24.29-24.29,50.48-63.82,74.49-87.83,25.47-25.46,62.5-49.21,86.29-73C519.42,29.32,532.29,14.7,544.63,0H516.06c-9.69,8.51-18.39,16.44-24.63,22.67-26.23,26.23-53.79,65.49-73.8,85.49-22.43,22.43-67.44,55.75-87,75.28-2.41,2.42-4.88,5-7.39,7.58-2.17,2-4.17,4-6,5.78C291,223,263.45,262.29,243.44,282.3,221,304.73,176,338,156.44,357.58c-2.74,2.75-5.56,5.65-8.43,8.66-2.51,2.36-4.82,4.58-6.85,6.62-26.23,26.23-53.79,65.49-73.8,85.5C50.89,474.9,22,497.39.2,515.89v32.6c23.53-24.43,48.69-62,71.81-85.09C97.48,437.93,134.51,414.23,158.29,390.45Z"/><path class="cls-1" d="M612.33,25.78v21c-15,18.28-31.87,37.92-45.66,51.71l-0.32.27c-11.27,11.22-25.46,22.43-40,33.8l-46,38.88c-24,24-50.2,63.54-74.49,87.83-2.12,2.11-4.37,4.3-6.73,6.54s-4.49,4.68-6.63,6.82c-23.79,23.78-60.82,47.48-86.28,73-24,24-50.2,63.53-74.49,87.82-2.41,2.41-5,4.91-7.72,7.47-2.59,2.76-5.13,5.38-7.56,7.81l-0.32.27c-11.28,11.22-25.47,22.42-40,33.8l-46,38.88c-24,24-50.21,63.54-74.5,87.82-2.11,2.12-4.37,4.3-6.73,6.54q-3.41,3.6-6.62,6.82C30.55,634.57,15.49,646.36.2,658.34V633.08c8.31-9.93,16.77-19.57,25.11-27.9q2.69-2.7,6-5.78c2.5-2.63,5-5.16,7.39-7.58,19.54-19.53,64.55-52.85,87-75.28,20-20,47.57-59.27,73.8-85.5,2-2,4.34-4.25,6.85-6.61,2.86-3,5.68-5.92,8.43-8.66,19.53-19.54,64.55-52.85,87-75.28,20-20,47.57-59.27,73.8-85.5,1.8-1.79,3.79-3.73,6-5.78,2.51-2.62,5-5.16,7.4-7.57,19.53-19.54,64.55-52.86,87-75.29,20-20,47.57-59.26,73.8-85.49C563.65,66.84,590.18,44.21,612.33,25.78Z"/><path class="cls-1" d="M612.33,134.7v33.54c-23,20-52.42,40-73.74,61.36-24,24-50.21,63.53-74.5,87.83-2.11,2.11-4.37,4.3-6.73,6.53q-3.41,3.6-6.62,6.82c-23.79,23.79-60.82,47.49-86.28,73-24,24-50.21,63.54-74.5,87.83-2.41,2.41-5,4.9-7.71,7.46-2.6,2.76-5.13,5.38-7.57,7.82-23.78,23.78-60.82,47.48-86.28,72.94-24,24-50.2,63.54-74.49,87.83q-3.18,3.18-6.73,6.54c-2.27,2.39-4.49,4.68-6.63,6.82C76.76,704.8,39.73,728.5,14.27,754,9.65,758.54,5,763.73.2,769.28V757.9c3.47-3.14,6.68-6.17,9.53-9,20-20,47.56-59.27,73.79-85.49q2.7-2.7,6-5.79c2.5-2.62,5-5.16,7.39-7.57,19.54-19.53,64.55-52.85,87-75.28,20-20,47.57-59.27,73.8-85.49,2-2,4.33-4.26,6.85-6.63,2.86-3,5.68-5.91,8.42-8.66,19.54-19.53,64.55-52.85,87-75.28,20-20,47.57-59.26,73.8-85.49,1.79-1.79,3.8-3.73,6-5.78q3.76-4,7.39-7.58c19.54-19.53,64.55-52.85,87-75.28,20-20,47.56-59.26,73.79-85.49C609.22,137.7,610.72,136.23,612.33,134.7Z"/><path class="cls-1" d="M612.33,260.1v13.4c-5.49,4.72-10.73,9.48-15.55,14.3-24,24-50.2,63.53-74.49,87.82q-3.18,3.18-6.73,6.54c-2.27,2.4-4.49,4.68-6.63,6.82-0.74.74-1.5,1.48-2.27,2.23v0.06q-2,2.1-4,4c-22.91,22.92-58.12,45.75-83.43,70.15-23,24.21-47.9,61.15-71,84.28l-3,3c-1,1-2.18,2.27-3.27,3.36q-2.38,2.39-5,4.87h0c-1.35,1.39-2.67,2.74-4,4L331.83,566l-0.09.09q-1.61,1.65-3.17,3.21C305.31,592.62,269.4,615.78,244,640.6c-23.28,24.19-48.44,61.72-71.83,85.11l-1.8,1.78q-1.29,1.35-2.58,2.64-2.34,2.33-4.88,4.76h0c-1.38,1.43-2.74,2.82-4.07,4.15l-2.32,2.29c-1.36,1.4-2.69,2.76-4,4.06-23,23-58.25,45.89-83.53,70.31C47,838.84,23.09,873.79.85,897L0,897.89,0.2,865c20.63-17.51,47.73-38.68,64.74-55,19.67-20.81,45.67-57.27,70.47-82.07,0.83-.83,1.7-1.69,2.61-2.57h0c1.23-1.28,2.45-2.53,3.68-3.76s2.86-2.82,4.45-4.34,3-3.1,4.52-4.59l0.92-.91h0c1.16-1.19,2.32-2.36,3.46-3.5,19-19,62.06-51,85-73.38,19.77-20.64,46.16-57.8,71.33-83l1.39-1.37h0l3-3c1.37-1.37,2.86-2.83,4.46-4.35s3-3.1,4.51-4.58l1.84-1.81,0.06-.06c1.49-1.53,3-3,4.41-4.48,18.69-18.69,60.71-50,84-72.32,19.68-20.79,45.69-57.29,70.51-82.11,0.82-.81,1.67-1.65,2.57-2.52a0.23,0.23,0,0,1,0,0c1.23-1.29,2.47-2.55,3.69-3.78,1.8-1.79,3.8-3.73,6-5.77q3.77-4,7.39-7.58c19.54-19.53,64.55-52.85,87-75.28C598.32,276.69,605.1,268.83,612.33,260.1Z"/><path class="cls-1" d="M612.33,374.36v22.4c-10.75,13.54-21.47,26.68-31.85,37q-3.17,3.18-6.73,6.55c-2.27,2.39-4.48,4.67-6.62,6.81-0.74.75-1.5,1.49-2.27,2.23l-0.06.06c-1.35,1.4-2.68,2.76-4,4.06-22.91,22.91-58.11,45.74-83.43,70.15-23,24.2-47.91,61.15-71,84.28l-3,3c-1,1-2.2,2.28-3.3,3.37-1.6,1.62-3.29,3.26-5,4.94-1.32,1.38-2.63,2.71-3.91,4l-1.29,1.27-3.1,3.15c-23.26,23.26-59.18,46.43-84.56,71.25-23.28,24.18-48.44,61.71-71.83,85.1l-1.74,1.73c-0.89.92-1.77,1.81-2.65,2.7-1.55,1.55-3.18,3.14-4.87,4.76h0c-1.39,1.43-2.75,2.82-4.08,4.15-0.74.74-1.49,1.48-2.27,2.23h0c-1.35,1.41-2.69,2.78-4,4.09-22.93,22.93-58.16,45.77-83.47,70.19-19.37,20.36-40,49.7-59.84,72.26H33.59l1.07-1,4.48-4.55c18.7-18.7,60.76-50,84-72.36,19.67-20.81,45.66-57.26,70.47-82.07,0.82-.82,1.69-1.68,2.61-2.57h0c1.24-1.28,2.46-2.54,3.69-3.76s2.85-2.81,4.43-4.33,3-3.11,4.53-4.6l0.93-.92h0q1.74-1.79,3.45-3.5c19-19,62.12-51,85.1-73.43,19.77-20.65,46.14-57.78,71.29-82.92l1.38-1.37h0l3-3c1.34-1.34,2.81-2.77,4.37-4.26h0q2.31-2.38,4.56-4.65c0.61-.6,1.24-1.22,1.9-1.85h0c1.49-1.53,3-3,4.41-4.47,18.69-18.69,60.71-50,83.94-72.32C493,497.26,519,460.77,543.79,436c0.81-.81,1.67-1.66,2.57-2.53v0q1.86-1.92,3.7-3.77c1.8-1.79,3.8-3.73,6-5.78,2.51-2.62,5-5.16,7.4-7.58C574.5,405.2,593.69,389.75,612.33,374.36Z"/><path class="cls-1" d="M612.33,483.87v34.22c-22.68,20.79-53.78,41.64-76.74,63.78-23.06,24.2-47.92,61.15-71,84.27-1,1-2,1.94-3,2.93q-1.68,1.75-3.34,3.42-2.38,2.39-5,4.87h0c-1.34,1.39-2.67,2.74-4,4-0.42.43-.85,0.85-1.29,1.28l-3.1,3.15c-23.28,23.28-59.23,46.47-84.63,71.31-23.25,24.19-48.38,61.67-71.75,85l-1.75,1.72q-1.32,1.38-2.64,2.7c-1.55,1.55-3.18,3.14-4.87,4.76h0q-2.09,2.15-4.08,4.15l-2.32,2.28c-1.36,1.4-2.69,2.76-4,4.06-22.93,22.93-58.15,45.77-83.47,70.19-4.12,4.33-8.3,9.07-12.53,14.07H159.06c8.25-7,15.95-13.69,22.27-19.76C201,905.59,227,869.13,251.8,844.33c0.82-.82,1.68-1.67,2.59-2.55h0q1.84-1.92,3.69-3.77c1.37-1.36,2.85-2.81,4.44-4.32s3-3.12,4.53-4.61l0.73-.72,0.09-.09c1.2-1.23,2.39-2.44,3.57-3.61,19-19,62.18-51.1,85.15-73.48,19.76-20.66,46.1-57.75,71.23-82.87l1.49-1.48c1-1,1.93-2,2.9-3,1.35-1.35,2.82-2.77,4.38-4.27h0q2.32-2.38,4.57-4.64c0.59-.59,1.21-1.19,1.85-1.81l0.06-.06c1.48-1.53,3-3,4.4-4.48,18.7-18.68,60.71-50,84-72.31C551.15,555.51,577.16,519,602,494.2c0.81-.82,1.67-1.66,2.56-2.53h0c1.23-1.28,2.47-2.54,3.7-3.77S610.89,485.24,612.33,483.87Z"/><path class="cls-1" d="M612.33,608v15.6c-6.52,5.41-12.79,10.88-18.55,16.43-23,24.21-47.91,61.15-71,84.28-1,1-2,1.94-3,2.92q-1.68,1.75-3.34,3.43c-1.61,1.6-3.3,3.25-5,4.93-1.33,1.38-2.64,2.72-3.92,4l-1.28,1.27c-1.06,1.08-2.09,2.13-3.11,3.15-23.26,23.26-59.18,46.43-84.57,71.25-23.26,24.19-48.43,61.71-71.82,85.1-0.57.58-1.15,1.15-1.74,1.73-0.88.92-1.76,1.82-2.65,2.7-1.55,1.55-3.18,3.14-4.87,4.76h0c-1.38,1.43-2.74,2.82-4.07,4.15-0.75.74-1.5,1.49-2.27,2.23h0c-1.35,1.41-2.69,2.77-4,4.08-8.67,8.67-19.1,17.32-30.09,26.06h-25C284.27,931,297.29,915.24,310,902.53c0.82-.83,1.68-1.67,2.58-2.55h0q1.86-1.92,3.7-3.77c1.36-1.37,2.85-2.81,4.43-4.33s3-3.11,4.54-4.6l0.72-.72,0.09-.09c1.2-1.23,2.4-2.44,3.58-3.62,19-19,62.11-51,85.1-73.43,19.76-20.65,46.13-57.77,71.28-82.92l1.49-1.47c1-1,1.93-2,2.9-3,1.35-1.35,2.81-2.78,4.38-4.27h0c1.54-1.59,3.07-3.14,4.57-4.65l1.89-1.86h0q2.23-2.29,4.41-4.47c18.69-18.69,60.71-50,84-72.32C596.56,627.17,604.21,618,612.33,608Z"/><path class="cls-1" d="M21.34,0H0.2V23.25l2.4-2.37C8.75,14.73,15,7.6,21.34,0Z"/><path class="cls-1" d="M53.08,86.54c2.72-2.56,5.3-5.06,7.71-7.46C82.32,57.55,105.34,24.06,127,0H115.86C92.15,20.8,59.6,45.67,43.77,61.5c-2.75,2.74-5.56,5.65-8.43,8.66-2.51,2.36-4.82,4.58-6.85,6.62C19.1,86.18,9.53,97.24.2,108.5v23.9c16.36-12.84,32.7-25.43,45.32-38C48,91.92,50.48,89.3,53.08,86.54Z"/><path class="cls-1" d="M103.71,152.55c2.43-2.44,5-5.06,7.57-7.82,2.72-2.56,5.3-5.06,7.71-7.46,24.29-24.29,50.48-63.81,74.49-87.83,17.09-17.08,39.4-33.38,59.4-49.44H226.76c-13.88,17-27,33.56-37.82,44.42-22.43,22.43-67.44,55.75-87,75.28-2.75,2.74-5.56,5.65-8.43,8.66-2.51,2.36-4.82,4.58-6.85,6.62-26.23,26.23-53.79,65.49-73.8,85.5-3.69,3.69-8,7.67-12.69,11.84V244.6c5.83-7,11.59-13.45,17.23-19.09C42.89,200,79.92,176.34,103.71,152.55Z"/><path class="cls-1" d="M75.63,283.69c25.46-25.46,62.49-49.16,86.29-72.95,2.43-2.43,5-5.05,7.57-7.81,2.72-2.56,5.3-5.06,7.71-7.46,24.29-24.29,50.48-63.82,74.49-87.83,25.46-25.46,62.5-49.16,86.29-72.95,2.14-2.14,4.36-4.42,6.63-6.82,2.36-2.24,4.62-4.42,6.73-6.54C357.59,15.06,364,7.78,370.45,0H338.18l-3.89,3.76c-2.42,2.42-4.89,5-7.39,7.58-2.17,2-4.17,4-6,5.78-26.23,26.23-53.79,65.49-73.8,85.49-22.43,22.43-67.44,55.75-87,75.28-2.75,2.74-5.56,5.65-8.43,8.66-2.51,2.36-4.82,4.58-6.85,6.62C118.59,219.4,91,258.66,71,278.66,53.59,296.16,22.37,320.27.2,339.3v33.15l0.94-.93C25.42,347.23,51.62,307.7,75.63,283.69Z"/><path class="cls-1" d="M52.6,436.26c2.36-2.24,4.62-4.42,6.73-6.54,24.29-24.29,50.48-63.81,74.49-87.83,25.46-25.46,62.49-49.16,86.29-73,2.43-2.43,5-5,7.57-7.81,2.72-2.56,5.3-5.06,7.71-7.46,24.29-24.29,50.48-63.82,74.49-87.83,25.46-25.46,62.5-49.16,86.29-72.95,2.14-2.14,4.36-4.42,6.63-6.82q3.54-3.35,6.73-6.54C431.18,57.87,454.36,24.09,476.15,0h-11c-23.76,20.89-56.67,46-72.62,62-2.42,2.42-4.89,5-7.39,7.58-2.17,2.05-4.17,4-6,5.78-26.23,26.23-53.79,65.49-73.8,85.49-22.43,22.43-67.44,55.75-87,75.28-2.75,2.74-5.56,5.65-8.43,8.66-2.51,2.36-4.82,4.58-6.85,6.62-26.23,26.23-53.79,65.49-73.8,85.49-22.43,22.43-67.44,55.75-87,75.28q-3.63,3.63-7.39,7.58c-2.17,2-4.17,4-6,5.78C19.4,435,9.67,446.33.2,457.77v23.71c16.51-13,33-25.67,45.77-38.4Q49.19,439.86,52.6,436.26Z"/><path class="cls-1" d="M104.19,501.29c2.14-2.14,4.36-4.42,6.62-6.82,2.36-2.24,4.62-4.42,6.73-6.54,24.3-24.29,50.46-63.81,74.46-87.82,25.46-25.46,62.5-49.16,86.29-73,2.43-2.44,5-5.06,7.57-7.82,2.72-2.56,5.3-5.06,7.71-7.46,24.29-24.29,50.48-63.81,74.49-87.83,25.46-25.46,62.49-49.16,86.28-72.95,2.14-2.14,4.36-4.42,6.63-6.81s4.62-4.42,6.73-6.54c24.29-24.29,50.49-63.81,74.49-87.83C559.45,32.66,582,16.21,602.19,0H575.86c-14,17.2-27.24,33.92-38.19,44.87-22.43,22.43-67.44,55.75-87,75.28-2.42,2.42-4.89,5-7.39,7.58-2.17,2.05-4.17,4-6,5.78C411.1,159.74,383.54,199,363.53,219c-22.43,22.43-67.44,55.75-87,75.28-2.75,2.74-5.56,5.64-8.43,8.66-2.51,2.36-4.82,4.58-6.86,6.62C235,335.79,207.45,375,187.45,395c-22.43,22.43-67.44,55.75-87,75.28-2.42,2.41-4.89,5-7.39,7.58-2.17,2-4.17,4-6,5.78-26.23,26.23-53.79,65.49-73.79,85.49C9.54,573,5.08,577.12.2,581.44v12.47c6-7.17,11.91-13.87,17.71-19.67C43.37,548.78,80.4,525.08,104.19,501.29Z"/><path class="cls-1" d="M612.33,84.73V97c-4.17,3.67-8.16,7.38-11.91,11.12-24,24-50.21,63.54-74.49,87.83q-3.18,3.18-6.73,6.54c-2.27,2.39-4.49,4.68-6.63,6.82-23.79,23.79-60.82,47.48-86.28,73-24,24-50.21,63.53-74.49,87.82-2.41,2.41-5,4.91-7.72,7.47-2.6,2.76-5.13,5.37-7.56,7.81-23.79,23.79-60.83,47.49-86.29,72.95-24,24-50.2,63.54-74.49,87.82q-3.18,3.18-6.73,6.55c-2.27,2.39-4.48,4.67-6.62,6.81-23.8,23.79-60.83,47.49-86.29,73-24,24-50.2,63.54-74.49,87.83l-1.41,1.4V688.41c22.19-19.09,53.72-43.41,71.34-61,20-20,47.57-59.26,73.79-85.49q2.7-2.7,6-5.78,3.77-4,7.39-7.58c19.54-19.53,64.55-52.85,87-75.28,20-20,47.57-59.27,73.79-85.49,2-2,4.35-4.26,6.86-6.62,2.86-3,5.68-5.92,8.43-8.66,19.53-19.53,64.54-52.85,87-75.28,20-20,47.57-59.27,73.8-85.49q2.69-2.7,6-5.79c2.51-2.62,5-5.16,7.4-7.58,19.53-19.52,64.54-52.84,87-75.27C600.92,98,606.45,91.73,612.33,84.73Z"/><path class="cls-1" d="M80.93,0H52.71c-15.43,18.79-30,37.57-42,49.51C7.61,52.62,4.06,56,.2,59.41V71.06c5.09-6,10.12-11.58,15.06-16.52C34.16,35.64,59.43,17.71,80.93,0Z"/><path class="cls-1" d="M159.74,39.78c2.14-2.14,4.36-4.42,6.63-6.82,2.36-2.24,4.62-4.42,6.73-6.54A351.77,351.77,0,0,0,196.4,0H165.54c-3.56,3.17-6.76,6.15-9.47,8.85-2.41,2.42-4.88,5-7.39,7.58-2.17,2-4.17,4-6,5.78-26.23,26.23-53.79,65.49-73.8,85.5C52,124.63,22.19,147.77.2,166.49v32.82c23.94-24.38,49.66-63,73.26-86.57C98.92,87.27,135.95,63.57,159.74,39.78Z"/><path class="cls-1" d="M49.45,266.22c2.72-2.56,5.3-5.06,7.71-7.46,24.29-24.29,50.49-63.82,74.49-87.83,25.46-25.46,62.49-49.16,86.28-72.95,2.14-2.14,4.36-4.42,6.63-6.82,2.36-2.24,4.62-4.42,6.73-6.54C254.53,61.38,279.52,24.19,302.65,0H292.57c-23.89,21.77-61,49.79-78.31,67-2.41,2.42-4.88,5-7.39,7.58-2.17,2-4.17,4-6,5.78-26.23,26.23-53.79,65.49-73.8,85.5-22.43,22.43-67.44,55.75-87,75.28-2.74,2.75-5.56,5.65-8.43,8.66-2.51,2.36-4.82,4.58-6.85,6.62C16.67,264.64,8.37,274.08.2,283.82v25.41c15.13-11.86,30-23.52,41.68-35.2C44.31,271.6,46.85,269,49.45,266.22Z"/><path class="cls-1" d="M100.08,332.23c2.43-2.44,5-5.06,7.57-7.82,2.72-2.56,5.3-5.06,7.71-7.46,24.29-24.29,50.49-63.82,74.49-87.83,25.46-25.46,62.49-49.16,86.28-72.95,2.14-2.14,4.36-4.42,6.63-6.82,2.36-2.24,4.62-4.42,6.73-6.54C313.78,118.53,340,79,364,55c19-19.06,44.59-37.14,66.2-55H401.8c-15.56,18.94-30.33,37.93-42.36,50-22.44,22.4-67.44,55.71-87,75.25-2.41,2.42-4.88,5-7.39,7.58-2.17,2-4.17,4-6,5.78-26.23,26.23-53.79,65.49-73.8,85.5-22.43,22.43-67.44,55.75-87,75.28-2.74,2.75-5.56,5.65-8.43,8.66-2.51,2.36-4.82,4.58-6.85,6.62-26.23,26.23-53.79,65.49-73.8,85.5-2.71,2.71-5.76,5.59-9.05,8.58V420c4.59-5.34,9.13-10.34,13.6-14.81C39.25,379.72,76.29,356,100.08,332.23Z"/></svg>